PathFileType	4	(X/Y/Z)	C:/Users/beibeiliu/ov580/test_trc/capture2\sequence.28_training_dense_right.trc
DataRate	CameraRate	NumFrames	NumMarkers	Units	OrigDataRate	OrigDataStartFrame	OrigNumFrames
120	120	12	19	mm	120	301	400
Frame#	Time	ThumbCMC			ThumbMCP			ThumbIP			ThumbTip			IndexMCP			IndexPIP			IndexTip			MiddleMCP			MiddlePIP			MiddleTip			RingMCP			RingPIP			RingTip			PinkyMCP			PinkyPIP			PinkyTip			BackHand1			BackHand2			BackHand3	
		X0	Y0	Z0	X1	Y1	Z1	X2	Y2	Z2	X3	Y3	Z3	X4	Y4	Z4	X5	Y5	Z5	X6	Y6	Z6	X7	Y7	Z7	X8	Y8	Z8	X9	Y9	Z9	X10	Y10	Z10	X11	Y11	Z11	X12	Y12	Z12	X13	Y13	Z13	X14	Y14	Z14	X15	Y15	Z15	X16	Y16	Z16	X17	Y17	Z17	X18	Y18	Z18	
300	2.5	91.372	-37.5182	46.5902	90.5367	-56.8506	20.8753	93.8066	-64.4447	-7.18379	97.6851	-69.7664	-23.7882	124.433	-36.6596	-26.0025	135.643	-45.7225	-42.8304	150.392	-49.2441	-65.0181	147.123	-43.9292	-16.6053	159.162	-68.6218	-15.1764	173.329	-93.3125	7.66659	161.225	-40.1534	2.37735	161.893	-64.2929	22.96	140.012	-60.3375	46.6842	171.662	-33.9321	15.3922	162.06	-52.7382	38.8828	139.144	-43.8599	53.683	132.975	3.77309	20.9648	120.653	10.9176	50.164	99.2896	-8.87791	29.9469	
301	2.50833	86.8795	-40.1178	46.5174	93.4646	-55.4397	20.976	93.6159	-65.5259	-4.60227	99.77	-68.9999	-27.264	124.193	-38.3837	-25.4238	137.267	-48.8739	-42.1064	154.557	-51.9816	-62.0248	149.853	-45.8568	-15.133	161.297	-72.0188	-10.926	171.068	-95.7645	13.4209	160.162	-43.4562	3.18628	160.671	-64.6902	21.7456	136.883	-60.5045	47.8033	167.817	-34.4912	13.6842	164.573	-51.3623	34.9723	136.482	-40.92	56.0357	133.586	4.09415	24.1731	119.899	12.8597	53.3731	103.782	-7.87602	28.2671	
302	2.51667	91.2107	-38.4757	46.1498	94.405	-54.6647	22.4409	95.488	-63.658	-3.89198	100.794	-68.7975	-22.768	122.778	-39.5424	-23.4964	140.703	-49.448	-40.6625	156.625	-55.5481	-60.8822	145.632	-44.1138	-12.962	162.419	-71.8155	-8.59926	171.312	-96.4524	13.0751	162.939	-42.4921	2.63048	162.704	-63.8988	24.6718	141.555	-59.6307	50.5624	169.096	-33.2026	13.1293	164.699	-51.751	36.7386	140.52	-41.1294	54.4853	131.223	3.03907	21.0064	118.213	11.3805	53.9261	101.694	-8.13884	28.3896	
303	2.525	88.8293	-39.2229	46.1486	93.7988	-54.8264	20.4521	94.4072	-65.3282	-5.73882	96.672	-72.182	-22.7105	125.411	-38.0226	-22.3188	138.539	-50.9817	-41.5113	154.602	-55.4701	-57.0531	150.078	-45.2258	-14.1203	160.922	-74.5108	-10.712	171.15	-95.6306	9.31788	160.547	-37.9212	1.829	165.544	-63.7447	24.0212	142.619	-61.4501	50.0633	173.163	-33.6507	13.9302	166.81	-50.5855	34.9196	137.798	-43.2303	52.4379	132.237	1.89855	20.1312	119.646	10.4023	51.1111	99.4887	-9.95145	29.4827	
304	2.53333	91.4461	-38.3596	45.9801	94.1486	-54.4635	21.9227	96.7959	-63.0317	-2.9258	98.4532	-71.2911	-21.7283	126.595	-40.5017	-26.393	139.626	-49.2324	-39.0888	161.265	-55.2014	-57.2873	148.488	-44.3111	-15.8069	164.341	-68.8122	-12.2125	174.33	-97.6288	7.52173	161.698	-41.2001	1.07472	165.033	-64.768	23.3402	147.422	-62.5224	48.0041	174.49	-30.7838	13.8607	169.161	-49.4037	33.2972	145.728	-41.0902	54.5157	133.108	3.9761	20.8545	120.683	12.0163	49.3194	97.8422	-8.21698	29.3464	
305	2.54167	90.8024	-38.3669	46.6728	93.3643	-55.7147	25.7997	97.1116	-63.2626	-3.60364	98.0611	-71.7615	-24.0076	127.078	-38.0988	-22.9707	140.509	-48.4754	-39.0887	159.65	-53.1995	-56.8426	147.855	-39.7248	-15.4644	165.181	-68.5538	-14.2355	176.869	-92.6721	1.99431	164.154	-39.3352	1.09315	168.112	-61.3246	17.571	149.212	-64.616	46.2668	174.82	-24.7558	14.9036	169.348	-49.4983	36.163	145.49	-44.7501	49.8635	132.565	6.23479	24.5878	122.065	14.6727	50.5484	98.9326	-9.3284	30.3542	
306	2.55	89.6126	-39.2556	44.8658	92.7476	-57.1683	23.4982	93.4919	-66.9042	-3.38056	95.8694	-74.0877	-19.9361	127.385	-39.6659	-27.0757	143.681	-46.4373	-39.0744	161.713	-49.7647	-56.876	150.835	-38.2368	-16.9315	167.322	-65.7267	-18.7151	183.345	-88.1808	-5.93817	164.05	-34.6724	0.284483	170.782	-60.1074	15.8814	156.304	-66.3838	46.9373	173.122	-26.0506	11.8539	174.952	-47.295	29.7511	146.869	-48.5469	52.8266	130.364	5.95971	25.107	120.857	13.8992	54.4946	103.427	-7.92276	28.9282	
307	2.55833	91.5739	-39.5731	45.3126	95.8968	-55.5977	23.7273	94.6515	-65.4349	-0.127654	92.635	-75.7572	-24.4995	131.375	-35.3261	-25.1825	141.836	-46.6896	-44.7848	155.988	-48.6512	-60.4171	151.156	-36.1708	-19.4599	169.778	-58.4449	-24.1929	187.59	-80.6446	-21.7809	168.346	-30.5227	-1.78345	174.631	-57.7547	9.11591	165.263	-72.7819	38.5715	177.237	-21.104	13.0522	177.167	-47.8767	27.1911	154.64	-56.9131	46.3586	133.781	6.93057	24.7607	118.394	10.266	50.2419	101.039	-8.30026	29.071	
308	2.56667	93.6075	-39.494	45.2408	94.4195	-56.9512	26.6258	94.4615	-67.1492	0.907814	94.7421	-75.0956	-22.0182	126.969	-32.6802	-24.1757	141.446	-39.255	-45.6469	150.909	-39.4424	-62.0669	153.273	-29.7131	-20.6671	168.703	-44.4033	-28.9291	190.608	-65.6975	-37.7159	168.901	-26.7277	-5.18344	182.51	-49.719	1.99784	179.419	-74.1553	21.0637	172.146	-15.7807	11.0319	182.952	-42.8163	20.3877	167.081	-64.6717	41.3238	131.5	7.48023	25.5066	118.284	12.4403	51.5048	100.868	-10.7049	30.6131	
309	2.575	93.7919	-41.4495	45.5342	94.5149	-58.6013	19.8302	94.2972	-69.1492	-5.51083	95.651	-76.033	-22.2496	120.802	-34.2164	-28.0612	131.85	-36.0237	-46.1836	141.77	-34.8679	-68.8269	147.295	-20.8769	-21.7547	167.727	-33.785	-39.6059	187.04	-45.0174	-54.3329	167.222	-23.1854	-8.86707	185.452	-41.9891	-8.25722	195.414	-70.7557	4.21562	176.026	-13.9684	11.0644	186.139	-36.5171	14.2071	184.178	-64.8592	27.3052	126.484	8.0786	28.2935	117.241	13.1868	55.4189	101.063	-9.12574	29.798	
310	2.58333	92.9352	-44.0181	41.9778	97.3013	-58.4035	21.7164	92.5325	-71.2907	-2.27533	94.2966	-77.8175	-23.1901	118.992	-32.798	-29.4978	125.968	-35.1648	-47.4807	133.873	-31.8024	-69.8879	144.987	-18.4023	-25.2447	160.908	-23.7867	-42.8536	175.229	-30.6141	-67.4299	166.563	-15.23	-8.86595	184.213	-37.6665	-18.0215	201.115	-60.7472	-19.0365	178.599	-12.8597	9.13547	186.779	-37.4549	8.82303	196.895	-63.0367	14.3658	127.322	7.81644	24.5412	116.664	9.78898	54.1288	101.843	-11.6236	29.3192	
311	2.59167	94.2127	-42.3651	42.0794	93.7728	-60.6265	24.0748	93.9658	-70.1021	-0.0309254	91.9862	-81.3376	-20.8383	117.554	-30.5682	-28.4968	122.246	-35.0693	-48.5026	125.767	-32.1108	-76.87	141.332	-17.2109	-29.5116	154.942	-18.5191	-47.2412	166.32	-18.9466	-70.7268	163.525	-14.3975	-13.1901	185.233	-27.1505	-26.3619	204.127	-44.1	-37.4152	178.484	-8.90771	10.7937	194.511	-27.9374	7.40668	207.232	-49.8297	-0.103068	129.735	6.6893	26.0442	118.996	11.0746	52.7637	102.488	-10.8899	30.7885	
